<?xml version="1.0" standalone="no"?><!DOCTYPE svg PUBLIC "-//W3C//DTD SVG 1.1//EN" "http://www.w3.org/Graphics/SVG/1.1/DTD/svg11.dtd"><svg t="1657256698279" class="icon" viewBox="0 0 1024 1024" version="1.1" xmlns="http://www.w3.org/2000/svg" p-id="25824" xmlns:xlink="http://www.w3.org/1999/xlink" width="64" height="64"><defs><style type="text/css">@font-face { font-family: feedback-iconfont; src: url("//at.alicdn.com/t/font_1031158_u69w8yhxdu.woff2?t=1630033759944") format("woff2"), url("//at.alicdn.com/t/font_1031158_u69w8yhxdu.woff?t=1630033759944") format("woff"), url("//at.alicdn.com/t/font_1031158_u69w8yhxdu.ttf?t=1630033759944") format("truetype"); }
</style></defs><path d="M512 1024c-28.94 0-43.01-14.07-43.01-43.01v-70.97l-1.47-0.16c-75.16-8.31-146.18-37.73-205.39-85.09l-1.16-0.93-50.15 50.14c-10.16 10.16-20.39 15.31-30.41 15.31s-20.26-5.15-30.41-15.31c-20.46-20.46-20.46-40.36 0-60.83l50.15-50.14-0.93-1.16c-47.36-59.2-76.78-130.22-85.09-205.38l-0.16-1.47H43.01C14.07 555.01 0 540.94 0 512c0-28.94 14.07-43.01 43.01-43.01h70.96l0.16-1.47c8.31-75.16 37.73-146.18 85.09-205.38l0.93-1.16-50.31-50.31c-20.46-20.46-20.46-40.36 0-60.82 10.16-10.16 20.39-15.31 30.41-15.31s20.25 5.15 30.41 15.31l50.31 50.31 1.16-0.93c59.2-47.36 130.22-76.78 205.38-85.09l1.47-0.16V43.01C468.99 14.07 483.06 0 512 0c28.94 0 43.01 14.07 43.01 43.01v70.96l1.47 0.16c75.24 8.32 146.32 37.79 205.55 85.23l1.16 0.93 50.29-50.28c10.16-10.16 20.39-15.31 30.41-15.31s20.26 5.15 30.41 15.31c20.46 20.46 20.46 40.36 0 60.82l-50.32 50.32 0.93 1.16c47.27 59.16 76.65 130.13 84.95 205.21l0.16 1.47h70.97c28.94 0 43.01 14.07 43.01 43.01 0 28.94-14.07 43.01-43.01 43.01h-70.97l-0.16 1.47c-8.32 75.23-37.79 146.31-85.23 205.55l-0.93 1.16 50.13 50.13c20.46 20.46 20.46 40.36 0 60.83-10.16 10.16-20.39 15.3-30.41 15.3s-20.26-5.15-30.41-15.3l-50.16-50.16-1.16 0.93c-59.16 47.27-130.12 76.65-205.21 84.95l-1.47 0.16V981c0 28.93-14.07 43-43.01 43z m0-826.32c-83.96 0-162.89 32.69-222.26 92.06-59.37 59.37-92.06 138.3-92.06 222.26 0 83.96 32.69 162.89 92.06 222.25 59.37 59.37 138.3 92.06 222.26 92.06 83.96 0 162.89-32.69 222.25-92.06 59.37-59.37 92.06-138.3 92.06-222.25 0-41.49-8.05-81.96-23.93-120.29-15.88-38.33-38.8-72.64-68.13-101.97-29.33-29.34-63.64-52.26-101.97-68.14-38.32-15.87-78.79-23.92-120.28-23.92z" fill="#ffc107" p-id="25825"></path><path d="M668.33 555.14c-11.52 0-22.36-4.49-30.51-12.64-8.15-8.15-12.63-18.98-12.63-30.5 0-62.42-50.78-113.2-113.19-113.2-23.79 0-43.14-19.35-43.14-43.14s19.35-43.14 43.14-43.14c109.99 0 199.47 89.48 199.47 199.47 0 11.52-4.49 22.35-12.64 30.5-8.14 8.16-18.98 12.65-30.5 12.65z" fill="#ffc107" p-id="25826"></path><path d="M668.33 555.01c-11.49 0-22.29-4.47-30.41-12.6-8.12-8.12-12.59-18.92-12.59-30.41 0-62.49-50.84-113.33-113.32-113.33-23.72 0-43.01-19.29-43.01-43.01 0-23.71 19.29-43.01 43.01-43.01 109.92 0 199.34 89.43 199.34 199.34 0 11.48-4.47 22.28-12.6 30.41-8.13 8.14-18.93 12.61-30.42 12.61z" fill="#ffc107" p-id="25827"></path></svg>