<?xml version="1.0" standalone="no"?><!DOCTYPE svg PUBLIC "-//W3C//DTD SVG 1.1//EN" "http://www.w3.org/Graphics/SVG/1.1/DTD/svg11.dtd"><svg t="1657256439140" class="icon" viewBox="0 0 1024 1024" version="1.1" xmlns="http://www.w3.org/2000/svg" p-id="15683" width="64" height="64" xmlns:xlink="http://www.w3.org/1999/xlink"><defs><style type="text/css">@font-face { font-family: feedback-iconfont; src: url("//at.alicdn.com/t/font_1031158_u69w8yhxdu.woff2?t=1630033759944") format("woff2"), url("//at.alicdn.com/t/font_1031158_u69w8yhxdu.woff?t=1630033759944") format("woff"), url("//at.alicdn.com/t/font_1031158_u69w8yhxdu.ttf?t=1630033759944") format("truetype"); }
</style></defs><path d="M703.782 179.178c31.35 18.111 60.275 40.774 85.897 67.587C858.241 318.519 896 412.714 896 512c0 51.868-10.144 102.15-30.15 149.451-19.337 45.719-47.034 86.792-82.321 122.078-35.286 35.287-76.359 62.983-122.078 82.321C614.15 885.856 563.868 896 512 896c-99.286 0-193.481-37.759-265.234-106.321-26.813-25.621-49.476-54.547-67.587-85.897C228.224 724.74 281.523 736 336 736c220.561 0 400-179.439 400-400 0-54.477-11.26-107.776-32.218-156.822M533.997 64.536C617.645 125.651 672 224.47 672 336c0 185.568-150.432 336-336 336-111.53 0-210.349-54.354-271.464-138.003C76.005 771.202 271.952 960 512 960c247.424 0 448-200.576 448-448 0-240.048-188.798-435.995-426.003-447.464zM288 224c17.6 0 32-14.4 32-32s-14.4-32-32-32h-64V96c0-17.6-14.4-32-32-32s-32 14.4-32 32v64H96c-17.6 0-32 14.4-32 32s14.4 32 32 32h64v64c0 17.6 14.4 32 32 32s32-14.4 32-32v-64h64z" p-id="15684"></path><path d="M416 416h-32v-32c0-17.6-14.4-32-32-32s-32 14.4-32 32v32h-32c-17.6 0-32 14.4-32 32s14.4 32 32 32h32v32c0 17.6 14.4 32 32 32s32-14.4 32-32v-32h32c17.6 0 32-14.4 32-32s-14.4-32-32-32z" p-id="15685"></path></svg>